<svg xmlns="http://www.w3.org/2000/svg" xmlns:xlink="http://www.w3.org/1999/xlink" width="28" height="28" id="plant"><defs><linearGradient id="b" x1="868.253" x2="937.656" y1="521.354" y2="588.736" gradientTransform="translate(-774.065 -462.595) scale(.89708)" gradientUnits="userSpaceOnUse" xlink:href="#a"></linearGradient><linearGradient id="a"><stop offset="0" stop-color="#24f3d2"></stop><stop offset=".394" stop-color="#0674f0"></stop><stop offset=".507" stop-color="#6961b5"></stop><stop offset=".813" stop-color="#f34660"></stop><stop offset="1" stop-color="#ee078d"></stop></linearGradient></defs><rect width="28" height="28" fill="url(#b)" rx="5.917" ry="5.917"></rect><path style="line-height:normal;text-indent:0;text-align:start;text-decoration-line:none;text-decoration-style:solid;text-decoration-color:#000;text-transform:none;block-progression:tb;isolation:auto;mix-blend-mode:normal" fill="#fff" d="M12.852 5.03a1.014 1.014 0 0 0-.348.054.926.926 0 0 0-.537.451c-.569.929-.678 2.073-.346 3.18.343 1.144 1.147 1.939 2.014 2.48l.02.012.02.012c.25.124.502.112.72.039a.923.923 0 0 0 .552-.463c.445-.89.676-2.021.332-3.168-.343-1.143-1.149-1.939-2.015-2.48l-.02-.012-.021-.012a.875.875 0 0 0-.371-.094zm-.038 1.033c.692.45 1.26 1.03 1.506 1.851.248.827.088 1.662-.244 2.36-.687-.45-1.253-1.029-1.498-1.846-.261-.872-.167-1.703.236-2.365zM17.8 10.17c-1.048 0-2.152.447-2.953 1.248-.332.332-.581.696-.776 1.078a4.15 4.15 0 0 0-.716-.978c-.802-.801-1.905-1.246-2.954-1.246-.26 0-.53.083-.746.275-.215.192-.355.5-.355.824 0 1.048.464 2.07 1.248 2.854.576.576 1.27.99 2.053 1.166v.707c-.928-.77-2.04-1.127-3.2-1.127-.26 0-.528.095-.716.283a1.018 1.018 0 0 0-.284.717c0 1.221.44 2.548 1.446 3.553a4.842 4.842 0 0 0 2.754 1.398v.549c0 .411.145.802.421 1.078.277.276.667.422 1.079.422.41 0 .802-.146 1.078-.422s.422-.667.422-1.078v-.586c.93-.18 1.8-.61 2.552-1.361 1.005-1.005 1.448-2.332 1.448-3.553 0-.261-.095-.528-.284-.717a1.018 1.018 0 0 0-.716-.283c-1.079 0-2.114.313-3 .974v-.554c.783-.177 1.476-.59 2.052-1.166.785-.784 1.248-1.82 1.248-2.953 0-.317-.143-.577-.334-.768a1.078 1.078 0 0 0-.767-.334zm0 1c-.017 0 .026.007.06.041s.041.077.041.06c0 .867-.339 1.63-.955 2.247-.416.416-.865.704-1.355.855-.022-.374-.159-.727-.412-.98a1.36 1.36 0 0 0-.315-.227 3.24 3.24 0 0 1 .69-1.04c.599-.6 1.494-.956 2.246-.956zm-7.399.102c.752 0 1.647.354 2.246.953.291.29.496.608.657.959-.102.059-.198.125-.282.209-.253.253-.39.606-.412.98-.49-.15-.94-.44-1.355-.855-.616-.616-.955-1.395-.955-2.147 0-.075.01-.068.02-.076a.145.145 0 0 1 .081-.023zm3.7 2.699c.188 0 .297.055.37.129.075.074.13.182.13.37v7c0 .19-.055.298-.13.372-.073.074-.182.129-.37.129-.19 0-.297-.055-.371-.129-.074-.074-.13-.182-.13-.371v-7c0-.095.015-.169.038-.229a.4.4 0 0 1 .092-.142c.023-.024.059-.04.091-.059l.28-.07zm-4.7 2c1.09 0 2.038.346 2.846 1.154l.3.299a.5.5 0 0 0 .054.047v2.44c-.75-.139-1.419-.466-2.047-1.094C9.757 18.02 9.4 16.95 9.4 15.97Zm9.2 0c0 .979-.36 2.05-1.155 2.846-.573.573-1.176.897-1.845 1.056v-2.595l.154-.153c.808-.808 1.757-1.154 2.846-1.154z" color="#000" font-family="sans-serif" font-weight="400" overflow="visible"></path></svg>