<?xml version="1.0" standalone="no"?>
<svg version="1.1" id="Layer_1_15_" xmlns="http://www.w3.org/2000/svg" xmlns:xlink="http://www.w3.org/1999/xlink" x="0px" y="0px" viewBox="0 0 595.276 595.276" enable-background="new 0 0 595.276 595.276" xml:space="preserve">
<path id="color_x5F_7" fill="#E96257" d="M111.366,399.289h0.08c-12.267,10.911-30.079,26.41-42.042,38.212v-8.123h-6.519
	v-30.089h0.627c0.773,4.983,10.628,4.521,10.628,4.521s11.91,0.057,31.94,0.144C107.927,402.327,109.696,400.767,111.366,399.289z
	 M264.595,354.693l2.86,4.36l29.604-22.617l30.458,23.078l1.907-4.304l-29.85-22.932h-5.967L264.595,354.693z M549.221,399.289
	c0.285,2.036-0.24,3.793-2.435,4.521c-1.058,0.351-13.401,0.592-33.452,0.749c8.213,9.015,18.135,21.179,28.218,37.277v-12.458
	h9.528v-30.089H549.221z M473.066,430.883c-4.513-3.51-31.092-1.003-42.125-1.003c-11.033,0-34.101-2.006-45.635-1.003
	c-8.352,0.726-13.54-6.961-7.775-13.352c0,0,0,0,0,0H239.156c0,0,0,0,0,0c9.101,6.646,3.736,16.163-5.516,15.358
	c-11.534-1.003-34.602,1.003-45.635,1.003c-11.033,0-37.611-2.507-42.125,1.003c-2.334,1.816-14.194,17.181-25.1,31.594h372.277
	C484.493,448.815,475.331,432.645,473.066,430.883z M214.135,407.021v-2.651c-6.43-0.022-12.742-0.044-18.917-0.067
	c5.416,3.314,12.583,4.523,19.296,5.221C214.268,408.731,214.135,407.891,214.135,407.021z M391.425,408.874
	C391.425,408.874,391.425,408.874,391.425,408.874C391.425,408.874,391.425,408.874,391.425,408.874
	C391.425,408.874,391.425,408.874,391.425,408.874z M393.026,408.635c0.356-0.048,0.717-0.094,1.089-0.138
	c0.156-0.018,0.317-0.036,0.476-0.053c0.319-0.035,0.64-0.071,0.969-0.104c0.2-0.02,0.404-0.04,0.607-0.06
	c0.285-0.028,0.573-0.055,0.864-0.082c0.28-0.026,0.564-0.052,0.85-0.077c0.164-0.015,0.33-0.029,0.495-0.044
	c2.981-0.263,6.225-0.524,9.497-0.962c0.02-0.003,0.041-0.006,0.061-0.008c0.571-0.077,1.143-0.16,1.714-0.249
	c0.054-0.008,0.107-0.017,0.161-0.025c0.549-0.087,1.098-0.18,1.644-0.279c0.055-0.01,0.11-0.02,0.164-0.03
	c0.564-0.104,1.126-0.216,1.684-0.336c0.028-0.006,0.057-0.012,0.085-0.018c1.791-0.388,3.545-0.862,5.219-1.454
	c-0.078-0.081-0.15-0.171-0.222-0.26c-0.319,0.12-0.64,0.238-0.965,0.35c-4.193-0.001-8.443-0.002-12.744-0.004
	c-1.606-0.001-3.225-0.002-4.844-0.003c-0.597,0-1.189-0.001-1.787-0.001c-2.117-0.002-4.245-0.003-6.383-0.005v2.229
	c0,0.635-0.076,1.252-0.21,1.849c-0.009,0.002-0.017,0.003-0.025,0.005c0.423-0.073,0.863-0.14,1.316-0.203
	C392.834,408.659,392.932,408.647,393.026,408.635z M256.207,310.986l37.611-17.301l37.611,16.549l5.266,2.173l2.257-5.078
	l-45.322-19.37l-45.698,21.25l2.633,4.513L256.207,310.986z"></path>
<path id="color_x5F_6" fill="#1ACDBC" d="M360.415,355.948c-2.128,3.411-6.395,2.218-6.395,2.218s2.113,5.195-2.024,7.498
	c-4.649,2.588-7.931-2.98-7.931-2.98s-3.429,3.926-8.495,0.29c-4.098-2.941-0.572-8.453-0.572-8.453s-5.135-1.787-3.462-6.409
	c1.7-4.699,7.198-2.807,7.198-2.807s-0.634-3.814,1.701-5.257c2.359-1.457,4.468,1.045,4.468,1.045s3.332-5.059,8.227-2.168
	c4.895,2.891,1.857,8.352,1.857,8.352C360.859,347.293,362.543,352.538,360.415,355.948z M391.661,326.553v80.468
	c0,0.635-0.076,1.252-0.21,1.849c-0.009,0.002-0.017,0.003-0.026,0.005c-0.756,0.13-1.462,0.276-2.107,0.445
	c-0.696,0.182-1.359,0.376-1.997,0.578c-0.199,0.063-0.382,0.132-0.576,0.197c-0.43,0.144-0.857,0.289-1.261,0.442
	c-0.206,0.078-0.398,0.16-0.596,0.24c-0.37,0.149-0.736,0.298-1.083,0.454c-0.186,0.083-0.362,0.17-0.542,0.255
	c-0.339,0.161-0.671,0.324-0.987,0.492c-0.157,0.083-0.309,0.168-0.46,0.253c-0.32,0.179-0.627,0.36-0.922,0.545
	c-0.124,0.078-0.247,0.156-0.367,0.235c-0.307,0.202-0.599,0.408-0.878,0.616c-0.087,0.065-0.176,0.129-0.26,0.195
	c-0.302,0.235-0.585,0.472-0.853,0.713c-0.048,0.043-0.099,0.085-0.145,0.128c-0.309,0.285-0.597,0.573-0.86,0.864c0,0,0,0,0,0
	H239.156c0,0,0,0,0,0c-0.261-0.191-0.537-0.379-0.822-0.565c-0.048-0.031-0.097-0.062-0.146-0.094
	c-0.277-0.177-0.561-0.352-0.861-0.524c-0.044-0.025-0.091-0.05-0.136-0.075c-0.518-0.292-1.071-0.574-1.656-0.848
	c-0.158-0.074-0.31-0.15-0.474-0.223c-0.223-0.099-0.458-0.194-0.69-0.291c-0.256-0.107-0.515-0.212-0.783-0.315
	c-0.214-0.082-0.432-0.163-0.654-0.242c-0.33-0.119-0.671-0.234-1.018-0.347c-0.188-0.061-0.372-0.124-0.566-0.183
	c-0.554-0.171-1.124-0.337-1.721-0.494c-0.41-0.107-0.851-0.203-1.307-0.293c-0.13-0.026-0.265-0.051-0.399-0.075
	c-0.363-0.067-0.739-0.13-1.126-0.189c-0.121-0.018-0.238-0.038-0.361-0.056c-0.494-0.071-1.004-0.138-1.532-0.2
	c-0.154-0.018-0.316-0.035-0.472-0.053c-0.394-0.044-0.795-0.087-1.204-0.128c-0.223-0.022-0.449-0.045-0.676-0.067
	c-0.353-0.034-0.714-0.067-1.077-0.1c-2.192-0.198-4.54-0.386-6.959-0.637c-0.246-0.793-0.38-1.634-0.38-2.505v-73.296c0,0,0,0,0,0
	c6.315-3.889,12.267-5.438,17.729-7.102c0.233-0.071,0.465-0.142,0.696-0.213c0.132-0.041,0.264-0.082,0.396-0.124
	c0.253-0.079,0.506-0.16,0.757-0.24c0.117-0.038,0.235-0.076,0.352-0.114c0.362-0.118,0.723-0.238,1.08-0.361
	c0.568-0.196,1.106-0.41,1.631-0.631c0.146-0.062,0.288-0.125,0.43-0.189c0.41-0.182,0.806-0.372,1.188-0.569
	c0.106-0.054,0.215-0.107,0.319-0.162c0.471-0.252,0.921-0.513,1.35-0.785c0.076-0.048,0.147-0.099,0.222-0.148
	c0.36-0.234,0.703-0.475,1.033-0.721c0.092-0.069,0.184-0.137,0.273-0.207c0.772-0.6,1.457-1.229,2.057-1.878
	c0.051-0.055,0.099-0.111,0.149-0.166c0.266-0.296,0.514-0.595,0.745-0.897c0.029-0.037,0.059-0.074,0.087-0.112
	c0.262-0.35,0.503-0.703,0.718-1.058c0,0,0,0,0,0h129.745c0.237,0.267,0.488,0.53,0.753,0.789c0.013,0.013,0.026,0.025,0.039,0.038
	c0.25,0.244,0.513,0.484,0.789,0.721c0.031,0.027,0.062,0.054,0.093,0.08c0.259,0.219,0.529,0.434,0.809,0.645
	c0.054,0.04,0.106,0.081,0.161,0.121c0.264,0.194,0.538,0.384,0.821,0.57c0.077,0.051,0.153,0.103,0.231,0.154
	c0.268,0.172,0.547,0.338,0.831,0.502c0.101,0.059,0.199,0.119,0.303,0.176c0.275,0.153,0.563,0.299,0.853,0.445
	c0.121,0.061,0.237,0.124,0.36,0.183c0.301,0.144,0.615,0.28,0.932,0.416c0.121,0.052,0.236,0.107,0.36,0.158
	c0.443,0.181,0.9,0.355,1.373,0.518c1.236,0.426,2.501,0.818,3.792,1.208c1.319,0.398,2.665,0.795,4.038,1.222c0,0,0,0,0.001,0
	C391.644,326.18,391.661,326.364,391.661,326.553z M226.17,357.729h-7.451v25.325h7.451V357.729z M384.64,337.948
	c0-3.118-2.551-5.669-5.669-5.669H236.353c-3.118,0-5.669,2.551-5.669,5.669v64.887c0,3.118,2.551,5.669,5.669,5.669h142.617
	c3.118,0,5.669-2.551,5.669-5.669V337.948z M261.661,379.731c0,0-8.086,0.376-8.463,8.274c0,0,7.898-2.069,16.925-1.316l0.188-11.66
	C270.312,375.03,263.542,373.337,261.661,379.731z M340.457,381.048c0,0,0-7.146-6.018-7.146c0,0-1.504-7.334-10.155-5.078
	l-0.188,17.489c0,0,10.155-0.752,20.686,1.693C344.782,388.006,346.475,381.8,340.457,381.048z"></path>
<path id="color_x5F_5" fill="#eca7ac" d="M509.457,495.073c0,0-31.878-60.68-36.392-64.19s-31.092-1.003-42.125-1.003
	c-11.033,0-34.101-2.006-45.635-1.003c-11.534,1.003-17.05-14.042,4.012-19.558c10.472-2.743,36.608,0.501,42.125-16.549
	c3.353-10.364,1.513-22.022-3.145-32.615c-7.047-7.49-21.82-20.489-36.545-23.294l0.008-10.827c-2.764-0.863-5.422-1.595-7.96-2.47
	c-14.543-5.015-15.045-19.056-4.513-18.555c10.531,0.502,33.098,8.525,45.134,15.546s26.077,22.065,34.603,29.086
	c8.525,7.021,29.588,28.083,35.104,35.104s34.386,29.086,59.962,79.235C554.09,463.981,559.606,492.064,509.457,495.073z
	 M235.145,325.571c14.543-5.015,15.045-19.056,4.513-18.555c-3.624,0.173-8.673,1.236-14.227,2.842l-0.316-0.836
	c-1.003-2.507-5.015-3.009-9.528-1.504s-21.564,5.015-28.585,8.525c-5.088,2.544-16.194,21.065-21.925,31.073
	c-1.869,1.71-3.605,3.257-5.155,4.533c-8.525,7.021-29.588,28.083-35.104,35.104c-5.516,7.021-68.703,58.674-68.202,66.698
	c0,0-7.522,26.077,44.632,37.11c0,0,40.119-54.16,44.632-57.671c4.513-3.51,31.092-1.003,42.125-1.003
	c11.033,0,34.101-2.006,45.635-1.003s17.051-14.042-4.012-19.558c-10.472-2.743-36.608,0.501-42.125-16.549
	c-5.516-17.051,3.009-37.611,15.045-51.152S225.699,328.828,235.145,325.571z M293.111,358.438H281.16
	c-1.564,0-2.843,1.444-2.843,3.209v28.051h17.638v-28.051C295.954,359.882,294.675,358.438,293.111,358.438z M314.058,358.438
	h-9.841c-1.564,0-2.843,1.444-2.843,3.209v16.444h15.527v-16.444C316.902,359.882,315.622,358.438,314.058,358.438z"></path>
<path id="color_x5F_4" fill="#6caefb" d="M361.141,354.156h23.499v13.374l-1.055-0.336c0,0-12.404-2.944-29.59-3.562
	c1.243-2.454,0.025-5.466,0.025-5.466s4.267,1.192,6.395-2.218C360.763,355.39,360.999,354.781,361.141,354.156z M344.065,362.685
	c0,0-0.838,0.954-2.292,1.486v16.501l0.509,0.86c2.061,0.898,2.622,2.715,2.702,4.199c1.526-0.12,3.935,0.395,3.935,0.395v-19.824
	C345.966,365.896,344.065,362.685,344.065,362.685z M218.719,383.054h7.451v-25.325h-7.451V383.054z M391.661,404.792
	c8.774,0.008,17.381,0.012,25.758,0.013c5.978-2.052,10.974-5.567,13.047-11.945c1.201-3.693,1.734-7.552,1.71-11.468h-40.515
	V404.792z M186.004,379.254c-0.085,0.004-0.167,0.012-0.254,0.012c-0.297,4.622,0.004,10.099,1.754,15.51
	c1.409,4.356,4.169,7.382,7.665,9.527c6.191,0.022,12.519,0.045,18.966,0.067v-24.591L186,379.281
	C186.001,379.272,186.003,379.263,186.004,379.254z M549.221,399.29c-0.591-4.226-4.686-9.664-4.686-9.664
	s-70.522-101.532-81.025-112.731c-10.503-11.198-25.508-11.198-25.508-11.198H174.671c-18.006-1.493-21.757,11.198-21.757,11.198
	s-81.025,106.758-87.777,117.21c-1.409,2.182-1.829,3.87-1.625,5.184c0.024,0.152,0.056,0.299,0.096,0.442
	c0.002,0.007,0.004,0.014,0.006,0.02c0.999,3.471,6.741,4.001,9.298,4.063c0.009,0,0.018,0,0.028,0.001
	c0.299,0.007,0.552,0.007,0.748,0.005c0.01,0,0.021,0,0.031,0c0.049-0.001,0.091-0.001,0.133-0.002c0.023,0,0.048-0.001,0.069-0.001
	c0.034-0.001,0.065-0.002,0.091-0.002c0.018-0.001,0.036-0.001,0.05-0.002c0.018-0.001,0.038-0.001,0.049-0.002
	c0.013-0.001,0.029-0.001,0.029-0.001s11.91,0.057,31.94,0.144c0.859-0.756,22.838-22.021,26.165-25.516
	c-0.073-0.034-0.142-0.073-0.212-0.11l-5.71-0.101c-3.009-2.507,0-7.522,0-7.522l6.519-8.024l2.092-0.021
	c0.026,0.071,0.044,0.145,0.07,0.217c0.081-0.069,0.161-0.138,0.248-0.202c-1.797-4.971-3.222-6.09-3.222-6.09
	c0.041-0.013,0.087-0.026,0.13-0.039c-0.082-0.148-0.131-0.313-0.154-0.482c-0.745,0.104-1.49,0.223-2.047,0.341l52.656-73.95
	c0,0,64.139-23.321,127.562,1.604c63.209-24.52,126.19-0.643,126.19-0.643l52.656,73.95c-0.835-0.176-1.676-0.332-2.513-0.5
	c-0.253,0.536-0.567,1.31-0.867,2.31l0.246-0.002l6.018,10.03c4.012,6.018,0.501,12.192,0.501,12.192h-0.206
	c-0.126,0.329-0.293,0.638-0.48,0.934c-0.11,0.216-0.229,0.425-0.358,0.63c0.625,0.722,1.182,1.384,1.622,1.941
	c2.476,3.136,9.676,9.309,19.162,19.671c0.416-0.003,0.824-0.006,1.233-0.01c0.577-0.005,1.148-0.009,1.712-0.014
	c0.053,0,0.107-0.001,0.16-0.001c0.582-0.005,1.158-0.01,1.726-0.015c0.013,0,0.025,0,0.038,0c0.581-0.005,1.156-0.01,1.722-0.016
	c0.016,0,0.032,0,0.048,0c1.142-0.011,2.254-0.022,3.335-0.033c0.022,0,0.043,0,0.065-0.001c0.494-0.005,0.981-0.01,1.462-0.016
	c0.081-0.001,0.162-0.002,0.243-0.003c0.47-0.005,0.934-0.011,1.39-0.016c0.042,0,0.083-0.001,0.125-0.001
	c0.485-0.006,0.964-0.012,1.435-0.018c0.021,0,0.042-0.001,0.063-0.001c0.453-0.006,0.899-0.011,1.338-0.017
	c0.072-0.001,0.142-0.002,0.214-0.003c0.41-0.005,0.813-0.011,1.211-0.017c0.078-0.001,0.155-0.002,0.232-0.003
	c0.388-0.006,0.772-0.011,1.148-0.017c0.063-0.001,0.125-0.002,0.187-0.003c0.396-0.006,0.787-0.012,1.169-0.018
	c0.046-0.001,0.092-0.002,0.138-0.002c0.35-0.006,0.693-0.011,1.031-0.017c0.124-0.002,0.245-0.004,0.367-0.006
	c0.299-0.005,0.594-0.01,0.884-0.016c0.096-0.002,0.19-0.004,0.285-0.005c0.295-0.006,0.586-0.011,0.87-0.017
	c0.102-0.002,0.202-0.004,0.302-0.006c0.28-0.006,0.558-0.011,0.828-0.017c0.077-0.002,0.152-0.003,0.229-0.005
	c0.274-0.006,0.544-0.012,0.807-0.018c0.096-0.002,0.189-0.004,0.284-0.007c0.24-0.006,0.478-0.011,0.709-0.017
	c0.095-0.002,0.186-0.005,0.279-0.007c0.228-0.006,0.453-0.012,0.671-0.018c0.081-0.002,0.159-0.005,0.239-0.007
	c0.216-0.006,0.429-0.012,0.635-0.018c0.088-0.003,0.171-0.005,0.257-0.008c0.193-0.006,0.384-0.012,0.568-0.018
	c0.087-0.003,0.168-0.006,0.253-0.009c0.17-0.006,0.34-0.012,0.501-0.017c0.099-0.004,0.191-0.007,0.286-0.011
	c0.14-0.005,0.282-0.011,0.415-0.016c0.099-0.004,0.192-0.008,0.287-0.012c0.122-0.005,0.246-0.01,0.362-0.016
	c0.079-0.004,0.152-0.007,0.228-0.011c0.123-0.006,0.247-0.012,0.362-0.018c0.066-0.003,0.125-0.007,0.188-0.01
	c0.113-0.006,0.228-0.012,0.333-0.019c0.067-0.004,0.126-0.008,0.189-0.012c0.09-0.006,0.183-0.011,0.266-0.017
	c0.071-0.005,0.133-0.01,0.199-0.015c0.065-0.005,0.135-0.01,0.195-0.015c0.065-0.005,0.121-0.011,0.18-0.017
	c0.051-0.005,0.106-0.009,0.152-0.014c0.051-0.005,0.092-0.011,0.137-0.016c0.044-0.005,0.092-0.01,0.13-0.016
	c0.051-0.007,0.09-0.014,0.131-0.021c0.022-0.004,0.049-0.007,0.068-0.011c0.056-0.011,0.101-0.022,0.134-0.033
	c0.249-0.083,0.471-0.182,0.679-0.291c0.061-0.032,0.117-0.068,0.175-0.102c0.144-0.085,0.279-0.175,0.401-0.273
	c0.049-0.039,0.099-0.078,0.145-0.119c0.139-0.123,0.265-0.254,0.375-0.393c0.013-0.016,0.029-0.031,0.042-0.047
	c0.125-0.165,0.231-0.342,0.319-0.527c0.012-0.025,0.021-0.052,0.033-0.078c0.073-0.163,0.134-0.333,0.182-0.51
	c0.009-0.034,0.018-0.069,0.027-0.104c0.048-0.198,0.085-0.402,0.105-0.613c0-0.001,0-0.002,0-0.004
	C549.313,400.289,549.292,399.798,549.221,399.29z M335.57,362.974c0.537,0.385,1.051,0.67,1.549,0.899
	c-4.376,0.293-8.877,0.79-13.415,1.543v24.282h-27.75v-23.517v-4.535c0-1.765-1.279-3.209-2.843-3.209H281.16
	c-1.564,0-2.843,1.444-2.843,3.209v1.36v26.692h-7.525v-27.166c-20.855-0.745-39.157,3.157-39.157,3.157h-0.951v-11.581l0.449,0.047
	h34.157l-0.695,0.537l2.86,4.36l3.337-2.549v-0.162l26.036-19.738l26.876,19.738v0.282l3.813,2.889l1.907-4.304l-1.373-1.054h6.145
	c0.468,0.248,0.801,0.366,0.801,0.366S331.473,360.033,335.57,362.974z M316.902,361.647c0-1.765-1.279-3.209-2.843-3.209h-9.841
	c-1.564,0-2.843,1.444-2.843,3.209v6.31v10.134h15.527v-11.352V361.647z M331.43,310.234l-37.611-16.549l-37.611,17.301
	l-0.186,7.063h75.809L331.43,310.234z"></path>
<path id="color_x5F_3" fill="#374598" d="M432.012,371.395c0.733,3.332,1.136,6.685,1.142,9.998h-41.494v-10.22L432.012,371.395
	z M485.888,359.171l-0.246,0.002c-0.78,2.597-1.453,6.751-0.632,12.514l-2.882-0.016c3.538,3.623,6.761,7.036,9.152,9.722h1.127
	c0,0,3.51-6.174-0.501-12.192L485.888,359.171z M186,379.281l28.135,0.497v-9.584l-26.342-0.145
	C186.918,373.105,186.297,376.199,186,379.281z M136.478,369.766c0,0-0.326-3.841-1.544-7.106l-2.092,0.021l-6.519,8.024
	c0,0-3.009,5.015,0,7.522l6.014,0.106c2.793-2.95,6.011-6.243,9.297-9.522c-0.327,0.326-0.653,0.652-0.978,0.978L136.478,369.766z
	 M444.873,206.242c17.445-13.063-59.283-110.1-111.939-78.507C302.101,146.235,420.905,224.19,444.873,206.242z M505.052,271.411
	c-49.251-42.125-84.628-21.062-205.328-110.578c-36.81-27.3-144.285-58.674-219.895,42.877
	C24.094,278.566,43.9,362.548,62.885,409.579v-10.29h0.633c-0.22-1.33,0.196-3.045,1.624-5.266
	c6.77-10.531,88.011-118.1,88.011-118.1s3.761-12.788,21.815-11.283h264.032c0,0,15.045,0,25.576,11.283
	c10.531,11.283,81.241,113.586,81.241,113.586s0.199,0.267,0.512,0.719C550.063,352.762,544.62,305.253,505.052,271.411z
	 M378.971,332.278h-79.396l28.477,21.877h6.145c0,0,0,0,0,0c-1.372-0.728-3.908-2.597-2.661-6.044
	c1.7-4.699,7.198-2.807,7.198-2.807s-0.634-3.814,1.701-5.257c2.359-1.457,4.468,1.045,4.468,1.045s3.332-5.059,8.227-2.168
	c4.895,2.891,1.857,8.352,1.857,8.352c4.912,0.013,6.883,3.682,6.154,6.878c0,0,0,0,0,0h23.499v-16.208
	C384.64,334.83,382.089,332.278,378.971,332.278z M230.684,337.948v16.161l0.449,0.047h34.157l-0.695,0.537l12.339-9.533
	l-20.873,0.157c0,0,0.043-5.186,3.826-6.086c3.652-0.869,6.608,2.435,6.608,2.435s1.833-6.114,6.782-5.565
	c4.483,0.498,5.572,4.908,5.833,7.379l14.498-11.201h-57.254C233.235,332.278,230.684,334.83,230.684,337.948z"></path>
<path id="color_x5F_2" fill="#56b9f7" d="M489.022,357.364c-0.835-0.176-1.676-0.332-2.513-0.5
	c-0.417,0.881-1,2.393-1.406,4.528c-0.004,0.019-0.007,0.039-0.011,0.059c-0.074,0.394-0.141,0.809-0.201,1.246
	c-0.004,0.029-0.008,0.056-0.012,0.085c-0.059,0.445-0.109,0.912-0.148,1.401c-0.005,0.066-0.009,0.135-0.013,0.201
	c-0.03,0.415-0.052,0.846-0.065,1.292c-0.003,0.112-0.008,0.221-0.01,0.335c-0.01,0.516-0.009,1.048,0.008,1.604
	c0.002,0.074,0.008,0.153,0.011,0.228c0.018,0.486,0.049,0.988,0.091,1.504c0.013,0.157,0.026,0.315,0.041,0.475
	c0.056,0.605,0.123,1.222,0.215,1.867l-2.882-0.016c-6.496-6.652-14.044-14.003-19.46-18.868c-0.195-0.175-0.387-0.347-0.577-0.516
	c-0.2-0.178-0.395-0.351-0.588-0.521c-0.17-0.15-0.34-0.3-0.505-0.444c-0.223-0.195-0.438-0.379-0.65-0.562
	c-0.124-0.107-0.253-0.218-0.373-0.321c-0.33-0.281-0.649-0.549-0.95-0.797c-8.525-7.021-22.567-22.065-34.603-29.086
	s-34.602-15.045-45.134-15.546c-7.713-0.367-9.498,7.064-4.194,13.039h-43.263l-0.401-7.815l5.266,2.173l2.257-5.078l-27.844-11.9
	l-17.478-7.47l-45.698,21.25l2.633,4.513l5.642-2.737l-0.186,7.063h-10.672c0,0,0,0,0,0c0,0,0,0,0,0
	c0.195-0.321,0.367-0.643,0.525-0.965c0.025-0.052,0.049-0.104,0.074-0.155c0.139-0.294,0.263-0.588,0.371-0.88
	c0.012-0.033,0.026-0.065,0.038-0.098c0.234-0.656,0.39-1.304,0.471-1.935c0.006-0.05,0.01-0.1,0.016-0.15
	c0.029-0.265,0.044-0.526,0.047-0.783c0-0.052,0.002-0.104,0.002-0.156c-0.008-0.596-0.087-1.169-0.238-1.707
	c-0.014-0.051-0.032-0.099-0.048-0.15c-0.066-0.212-0.143-0.419-0.232-0.619c-0.027-0.062-0.055-0.123-0.084-0.184
	c-0.101-0.208-0.214-0.408-0.34-0.6c-0.021-0.031-0.038-0.065-0.059-0.096c-0.151-0.221-0.32-0.429-0.505-0.626
	c-0.038-0.041-0.082-0.078-0.121-0.117c-0.15-0.15-0.309-0.292-0.479-0.426c-0.065-0.052-0.132-0.101-0.201-0.15
	c-0.169-0.121-0.349-0.234-0.537-0.339c-0.064-0.036-0.125-0.075-0.191-0.109c-0.255-0.131-0.524-0.25-0.811-0.35
	c-0.048-0.017-0.1-0.028-0.149-0.044c-0.244-0.08-0.498-0.148-0.763-0.205c-0.1-0.021-0.203-0.039-0.306-0.057
	c-0.237-0.041-0.482-0.072-0.734-0.095c-0.106-0.009-0.21-0.021-0.319-0.027c-0.359-0.02-0.728-0.027-1.116-0.009
	c-0.406,0.019-0.836,0.054-1.276,0.095c-0.126,0.012-0.256,0.026-0.385,0.039c-0.349,0.037-0.707,0.08-1.074,0.129
	c-0.119,0.016-0.234,0.03-0.355,0.047c-0.479,0.068-0.971,0.145-1.478,0.232c-0.093,0.016-0.19,0.035-0.285,0.052
	c-0.428,0.076-0.866,0.159-1.312,0.247c-0.153,0.031-0.307,0.062-0.462,0.094c-0.462,0.095-0.931,0.196-1.409,0.304
	c-0.09,0.02-0.177,0.038-0.267,0.059c-0.567,0.13-1.145,0.269-1.732,0.415c-0.144,0.036-0.29,0.074-0.435,0.111
	c-0.465,0.118-0.935,0.24-1.41,0.368c-0.164,0.044-0.327,0.087-0.492,0.132c-0.612,0.167-1.229,0.339-1.855,0.52l-0.316-0.836
	c-1.003-2.507-5.015-3.009-9.528-1.504s-21.564,5.015-28.585,8.525c-5.088,2.544-16.191,21.06-21.923,31.068
	c-0.524,0.48-1.042,0.951-1.544,1.402c-0.08,0.072-0.158,0.14-0.237,0.212c-0.492,0.441-0.971,0.865-1.439,1.273
	c-0.101,0.089-0.203,0.177-0.303,0.263c-0.53,0.459-1.046,0.9-1.541,1.308c-0.334,0.039-0.668,0.087-1.002,0.127l-11.471,11.305
	c-2.262,2.189-4.594,4.487-6.877,6.778c-0.004,0.004-0.007,0.007-0.011,0.011l-3.397-0.254c-2.249-9.405-4.845-12.733-5.527-13.481
	c-0.59,0.12-1.184,0.226-1.772,0.35l52.656-73.95c0,0,64.139-23.321,127.562,1.604c63.209-24.52,126.19-0.643,126.19-0.643
	L489.022,357.364z M202.548,343.624c-0.243,0.274-0.476,0.567-0.716,0.847c-0.007,0.001-0.013,0.002-0.02,0.003
	c-0.426,0.495-0.846,1.001-1.261,1.513c-0.157,0.193-0.31,0.39-0.465,0.585c-0.57,0.718-1.132,1.447-1.68,2.194
	c-0.04,0.054-0.082,0.104-0.121,0.158c0.003,0,0.005,0,0.008,0c-4.593,6.301-8.351,13.594-10.509,21.125l26.351,0.145v-21.437
	v-5.774v-9.257C210.391,336.031,206.52,339.156,202.548,343.624z M431.398,368.923c-0.041-0.152-0.077-0.305-0.12-0.457
	c-0.235-0.846-0.492-1.689-0.767-2.528c-0.058-0.176-0.121-0.352-0.181-0.528c-0.23-0.681-0.473-1.36-0.728-2.035
	c-0.08-0.212-0.16-0.424-0.242-0.635c-0.317-0.814-0.646-1.624-0.997-2.427c-0.003-0.007-0.005-0.013-0.008-0.02
	c-0.022-0.051-0.048-0.1-0.07-0.151c-7.051-7.492-21.817-20.478-36.533-23.281l-0.092,2.791v10.302v21.219l40.341,0.222
	c-0.026-0.117-0.051-0.235-0.078-0.352C431.764,370.335,431.588,369.628,431.398,368.923z M279.109,343.48
	c-0.26-2.47-1.35-6.881-5.833-7.379c-4.949-0.55-6.782,5.565-6.782,5.565s-2.956-3.304-6.608-2.435
	c-3.783,0.901-3.826,6.086-3.826,6.086l20.873-0.157L279.109,343.48z M337.105,363.866c-4.371,0.293-8.866,0.788-13.401,1.542v3.286
	c0.34-0.041,0.674-0.028,1.019,0.04c8.248-1.886,9.716,5.167,9.716,5.167c6.018,0,6.018,7.146,6.018,7.146
	c0.714,0.089,1.313,0.26,1.826,0.484l-0.509-0.86V364.17C340.589,364.603,338.993,364.74,337.105,363.866z M353.994,363.633
	C353.995,363.633,353.994,363.633,353.994,363.633c-0.096,0.189-0.205,0.375-0.332,0.556c-0.009,0.013-0.021,0.025-0.03,0.038
	c-0.121,0.169-0.252,0.334-0.403,0.493c-0.052,0.055-0.118,0.105-0.174,0.159c-0.12,0.114-0.236,0.23-0.375,0.336
	c-0.206,0.16-0.433,0.311-0.684,0.45c-0.283,0.157-0.56,0.283-0.832,0.382c-0.185,0.068-0.363,0.107-0.542,0.151
	c-0.081,0.02-0.165,0.051-0.244,0.066c-0.239,0.046-0.471,0.066-0.7,0.074c-0.015,0-0.031,0.004-0.046,0.004
	c-0.244,0.006-0.481-0.01-0.713-0.041v19.824c0,0-2.409-0.515-3.935-0.395c0,0,0,0,0,0.001c0.068,1.257-0.203,2.274-0.203,2.274
	c-0.568-0.132-1.135-0.253-1.699-0.367c-0.055-0.011-0.11-0.023-0.165-0.034c-0.534-0.106-1.065-0.204-1.593-0.295
	c-0.082-0.014-0.165-0.029-0.247-0.043c-0.513-0.087-1.021-0.166-1.525-0.24c-0.09-0.013-0.18-0.026-0.27-0.039
	c-0.497-0.071-0.99-0.136-1.475-0.195c-0.089-0.011-0.178-0.021-0.266-0.032c-0.486-0.057-0.967-0.11-1.438-0.157
	c-0.075-0.007-0.148-0.014-0.223-0.021c-0.483-0.047-0.961-0.089-1.426-0.126c-0.038-0.003-0.075-0.005-0.114-0.008
	c-0.447-0.034-0.884-0.064-1.312-0.09c-0.064-0.004-0.129-0.008-0.193-0.012c-0.424-0.025-0.835-0.045-1.237-0.063
	c-0.082-0.004-0.166-0.008-0.247-0.011c-0.383-0.016-0.755-0.028-1.115-0.038c-0.089-0.002-0.177-0.005-0.264-0.007
	c-0.348-0.008-0.685-0.015-1.008-0.019c-0.084-0.001-0.167-0.002-0.25-0.003c-0.315-0.003-0.62-0.004-0.907-0.004
	c-0.071,0-0.138,0.001-0.207,0.001c-0.288,0.001-0.567,0.004-0.823,0.008c-0.042,0.001-0.08,0.002-0.121,0.002
	c-0.244,0.004-0.474,0.009-0.687,0.015c-0.035,0.001-0.074,0.002-0.109,0.003c-0.222,0.006-0.423,0.013-0.606,0.021
	c-0.034,0.001-0.07,0.003-0.102,0.004c-0.175,0.007-0.33,0.014-0.463,0.021c-0.022,0.001-0.045,0.002-0.067,0.003
	c-0.131,0.007-0.246,0.013-0.328,0.018c0,0,0,0,0,0c-0.195,0.07-0.393,0.112-0.592,0.135v3.263h-27.75h-17.638h-7.525v-3.112
	c-0.114,0.013-0.223,0.034-0.346,0.034c-0.114,0-0.214-0.021-0.32-0.032l-0.002,0.101c-9.027-0.752-16.925,1.316-16.925,1.316
	c0.376-7.898,8.463-8.274,8.463-8.274c0.11-0.375,0.241-0.717,0.382-1.039c0.046-0.103,0.098-0.194,0.146-0.292
	c0.103-0.209,0.209-0.413,0.324-0.599c0.061-0.099,0.126-0.19,0.191-0.283c0.115-0.166,0.234-0.325,0.358-0.471
	c0.069-0.081,0.138-0.16,0.209-0.235c0.133-0.142,0.27-0.273,0.411-0.396c0.068-0.059,0.134-0.12,0.203-0.175
	c0.164-0.13,0.331-0.247,0.501-0.355c0.05-0.032,0.098-0.068,0.149-0.098c0.457-0.272,0.93-0.473,1.402-0.617
	c0.039-0.012,0.078-0.02,0.118-0.032c0.194-0.056,0.385-0.104,0.576-0.143c0.062-0.013,0.122-0.022,0.183-0.033
	c0.168-0.03,0.333-0.055,0.496-0.074c0.065-0.008,0.129-0.014,0.193-0.02c0.156-0.014,0.306-0.025,0.454-0.031
	c0.062-0.003,0.124-0.006,0.185-0.007c0.146-0.003,0.285-0.002,0.422,0.001c0.053,0.001,0.107,0.001,0.158,0.003
	c0.146,0.006,0.281,0.015,0.411,0.025c0.122,0.01,0.23,0.021,0.336,0.033c0.05,0.006,0.105,0.011,0.151,0.017
	c0.117,0.015,0.215,0.03,0.305,0.046c0,0,0.001,0,0.001,0c0.165-0.029,0.334-0.051,0.518-0.051c0.123,0,0.232,0.021,0.346,0.034
	v-12.406c-0.319-0.011-0.639-0.023-0.957-0.033c-0.181-0.005-0.361-0.011-0.542-0.016c-0.559-0.014-1.115-0.025-1.669-0.032
	c-0.134-0.002-0.269-0.005-0.403-0.006c-0.683-0.008-1.362-0.012-2.036-0.011c-0.001,0-0.002,0-0.003,0
	c-1.405,0.002-2.791,0.023-4.153,0.059c-0.064,0.002-0.126,0.004-0.19,0.006c-0.596,0.017-1.188,0.036-1.774,0.058
	c-0.133,0.005-0.264,0.011-0.396,0.016c-0.512,0.021-1.021,0.043-1.524,0.068c-0.163,0.008-0.325,0.017-0.488,0.025
	c-0.474,0.025-0.943,0.051-1.409,0.078c-0.166,0.01-0.332,0.02-0.496,0.03c-0.465,0.029-0.926,0.06-1.382,0.092
	c-0.149,0.01-0.299,0.021-0.448,0.031c-0.481,0.035-0.955,0.071-1.425,0.109c-0.117,0.009-0.235,0.018-0.351,0.028
	c-0.531,0.043-1.054,0.089-1.57,0.135c-0.048,0.004-0.098,0.008-0.146,0.013c-1.73,0.157-3.37,0.331-4.905,0.51
	c-0.085,0.01-0.167,0.02-0.251,0.03c-0.412,0.049-0.818,0.098-1.214,0.147c-0.116,0.014-0.229,0.029-0.343,0.043
	c-0.358,0.045-0.71,0.091-1.054,0.136c-0.123,0.016-0.244,0.032-0.364,0.049c-0.335,0.045-0.664,0.09-0.985,0.135
	c-0.107,0.015-0.213,0.03-0.318,0.045c-0.324,0.046-0.639,0.091-0.948,0.137c-0.096,0.014-0.194,0.028-0.288,0.042
	c-0.325,0.048-0.639,0.096-0.945,0.143c-0.061,0.009-0.125,0.019-0.185,0.028c-0.355,0.055-0.698,0.109-1.025,0.162
	c-0.009,0.002-0.02,0.003-0.029,0.005c-0.682,0.11-1.299,0.215-1.851,0.311c-0.062,0.011-0.117,0.021-0.177,0.031
	c-0.203,0.036-0.4,0.071-0.583,0.104c-0.069,0.012-0.132,0.024-0.198,0.036c-0.164,0.03-0.323,0.059-0.469,0.086
	c-0.063,0.012-0.123,0.023-0.183,0.034c-0.132,0.025-0.258,0.049-0.373,0.071c-0.052,0.01-0.103,0.02-0.151,0.029
	c-0.108,0.021-0.206,0.04-0.296,0.058c-0.043,0.009-0.09,0.018-0.129,0.025c-0.078,0.015-0.146,0.029-0.207,0.041
	c-0.029,0.006-0.063,0.013-0.087,0.018c-0.05,0.01-0.086,0.018-0.12,0.025c-0.07,0.015-0.119,0.025-0.119,0.025h-0.951v36.832
	c0,3.29,2.692,5.982,5.982,5.982h141.991c3.29,0,5.982-2.692,5.982-5.982V367.53l-1.055-0.336
	C383.585,367.194,371.18,364.25,353.994,363.633z"></path>
<path id="color_x5F_1" fill="#000000" d="M378.971,331.278H236.353c-3.678,0-6.669,2.991-6.669,6.669v64.888
	c0,3.678,2.992,6.669,6.669,6.669h142.618c3.678,0,6.669-2.991,6.669-6.669v-64.888C385.64,334.27,382.648,331.278,378.971,331.278z
	 M383.64,366.181c-1.536-0.346-12.865-2.788-28.264-3.454c0.27-1.158,0.22-2.345,0.028-3.357c1.885,0.061,4.371-0.505,5.86-2.893
	c0.261-0.418,0.459-0.865,0.621-1.322h21.755V366.181z M345.873,384.725c-0.135-0.741-0.394-1.511-0.866-2.215
	c-0.545-0.813-1.301-1.42-2.233-1.845v-15.816c0.415-0.198,0.789-0.425,1.114-0.664c0.921,1.172,2.325,2.406,4.031,2.917v17.825
	C347.321,384.835,346.584,384.751,345.873,384.725z M296.954,388.698v-27.051c0-2.321-1.724-4.209-3.843-4.209H281.16
	c-2.119,0-3.843,1.888-3.843,4.209v27.051h-5.525v-31.7l25.27-19.306l25.643,19.428v31.577H296.954z M294.954,388.698h-15.637
	v-27.051c0-1.197,0.844-2.209,1.843-2.209h11.951c0.999,0,1.843,1.012,1.843,2.209V388.698z M269.792,385.664
	c-6.773-0.508-12.794,0.5-15.436,1.052c1.092-5.594,7.082-5.972,7.352-5.985c0.426-0.02,0.792-0.308,0.913-0.717
	c1.405-4.773,5.99-4.282,7.171-4.069V385.664z M269.792,361.541c-19.096-0.54-35.842,2.661-38.108,3.118v-9.503h32.039
	c0.015,0.028,0.018,0.06,0.036,0.087l2.86,4.359c0.152,0.231,0.394,0.391,0.668,0.437c0.271,0.049,0.555-0.022,0.775-0.19
	l1.73-1.322V361.541z M276.589,344.163l-19.424,0.145c0.218-1.349,0.89-3.613,2.953-4.105c0.34-0.081,0.675-0.116,1.001-0.116
	c2.565,0,4.609,2.222,4.63,2.245c0.242,0.269,0.611,0.391,0.963,0.309c0.353-0.078,0.636-0.342,0.74-0.688
	c0.016-0.053,1.641-5.308,5.713-4.857c3.506,0.389,4.572,3.69,4.891,5.934L276.589,344.163z M293.949,333.278h5.286l28.957,22.245
	l-1.076,2.431l-29.453-22.315c-0.179-0.136-0.391-0.203-0.604-0.203c-0.214,0-0.428,0.068-0.607,0.205l-28.75,21.965l-1.763-2.687
	L293.949,333.278z M326.914,360.311c0.175,0.133,0.388,0.203,0.604,0.203c0.084,0,0.168-0.011,0.25-0.032
	c0.296-0.076,0.541-0.283,0.664-0.562l1.906-4.304c0.066-0.149,0.08-0.305,0.072-0.46h3.113c-1.028,2.229-1.665,5.609,0.692,7.966
	c-3.13,0.266-6.308,0.637-9.51,1.134v-5.619L326.914,360.311z M340.773,377.42c-0.824-2.149-2.498-4.196-5.577-4.484
	c-0.379-1.083-1.318-3.069-3.384-4.354c-1.916-1.193-4.308-1.479-7.108-0.875v-1.426c4.145-0.656,8.256-1.101,12.268-1.372
	c1.388,0.582,2.674,0.699,3.802,0.543V377.42z M324.704,369.754c2.452-0.61,4.486-0.441,6.033,0.513
	c2.166,1.335,2.718,3.813,2.723,3.835c0.096,0.465,0.505,0.799,0.979,0.799c4.935,0,5.017,5.897,5.018,6.146
	c0,0.504,0.376,0.93,0.876,0.992c1.409,0.176,2.421,0.706,3.007,1.575c0.338,0.5,0.514,1.073,0.598,1.629
	c-0.11,0.185-0.176,0.398-0.148,0.629c0.023,0.18,0.104,0.332,0.206,0.467c-0.005,0.162-0.013,0.318-0.026,0.46
	c-8.757-1.871-16.906-1.642-19.266-1.523V369.754z M344.927,362.177c-0.163-0.276-0.449-0.458-0.769-0.488
	c-0.031-0.003-0.062-0.004-0.093-0.004c-0.287,0-0.562,0.124-0.753,0.342c-0.115,0.133-2.881,3.207-7.159,0.136
	c-3.272-2.349-0.435-6.91-0.312-7.104c0.163-0.257,0.198-0.575,0.1-0.863c-0.1-0.287-0.325-0.516-0.611-0.617
	c-0.021-0.007-2.069-0.751-2.839-2.381c-0.384-0.813-0.389-1.711-0.015-2.745c1.342-3.708,5.749-2.263,5.933-2.201
	c0.334,0.117,0.703,0.047,0.971-0.182c0.27-0.228,0.398-0.58,0.341-0.928c-0.005-0.031-0.477-3.182,1.239-4.242
	c1.59-0.983,3.116,0.768,3.178,0.839c0.203,0.241,0.526,0.371,0.821,0.353c0.313-0.018,0.603-0.183,0.776-0.444
	c0.116-0.174,2.884-4.221,6.885-1.858c3.984,2.353,1.596,6.817,1.492,7.007c-0.171,0.309-0.166,0.685,0.013,0.989
	c0.179,0.306,0.506,0.493,0.859,0.494c2.22,0.006,3.91,0.855,4.761,2.394c0.795,1.437,0.725,3.3-0.179,4.747
	c-1.696,2.719-5.138,1.824-5.277,1.785c-0.371-0.106-0.762,0.012-1.016,0.297s-0.324,0.689-0.181,1.043
	c0.073,0.179,1.742,4.396-1.583,6.247C347.772,366.872,345.04,362.367,344.927,362.177z M383.64,337.947v15.208h-21.358
	c0.052-1.2-0.206-2.403-0.786-3.452c-0.992-1.793-2.784-2.957-5.034-3.311c0.826-2.446,0.915-6.119-2.823-8.327
	c-3.871-2.287-7.153-0.322-8.854,1.56c-1.175-0.883-3.009-1.58-4.874-0.427c-1.856,1.146-2.229,3.354-2.252,4.821
	c-2.387-0.37-5.74,0.104-7.062,3.753c-0.559,1.544-0.527,2.988,0.094,4.294c0.193,0.406,0.438,0.762,0.703,1.089h-3.001
	l-25.873-19.877h76.453C381.545,333.278,383.64,335.373,383.64,337.947z M236.353,333.278h54.324l-10.843,8.378
	c-0.688-2.959-2.492-6.11-6.447-6.549c-3.76-0.421-6.163,2.48-7.295,4.853c-1.328-1.027-3.681-2.356-6.437-1.701
	c-4.493,1.07-4.592,6.808-4.594,7.052c-0.002,0.268,0.103,0.525,0.292,0.715c0.188,0.188,0.442,0.293,0.708,0.293h0.007
	l17.906-0.135l-9.025,6.972h-33.267v-15.208C231.684,335.373,233.778,333.278,236.353,333.278z M231.684,402.835v-36.166
	c0.054-0.003,0.105,0.01,0.159-0.002c0.279-0.059,17.833-3.71,37.949-3.136v10.383c-2.713-0.409-7.135,0.197-8.872,4.879
	c-3.228,0.405-8.411,2.688-8.72,9.165c-0.015,0.318,0.122,0.624,0.369,0.824c0.18,0.146,0.403,0.224,0.63,0.224
	c0.084,0,0.17-0.011,0.253-0.032c0.076-0.02,7.686-1.976,16.34-1.304v2.029c0,0.553,0.448,1,1,1h7.525h17.637h8.607v16.806h-68.208
	C233.778,407.504,231.684,405.409,231.684,402.835z M378.971,407.504h-72.409v-16.806h17.143c0.553,0,1-0.447,1-1v-2.419
	c2.205-0.11,10.935-0.369,19.852,1.7c0.076,0.019,0.152,0.026,0.228,0.026c0.441,0,0.843-0.294,0.964-0.737
	c0.016-0.057,0.177-0.671,0.233-1.541c1.037,0.059,2.233,0.269,2.73,0.375c0.069,0.016,0.14,0.022,0.209,0.022
	c0.227,0,0.449-0.077,0.629-0.223c0.234-0.189,0.371-0.476,0.371-0.777v-18.799c0.816-0.058,1.673-0.292,2.563-0.787
	c0.913-0.508,1.575-1.148,2.049-1.853c16.595,0.649,28.599,3.428,28.822,3.481c0.097,0.023,0.192,0.015,0.286,0.01v34.658
	C383.64,405.409,381.545,407.504,378.971,407.504z M226.17,356.729h-7.451c-0.552,0-1,0.447-1,1v25.325c0,0.553,0.448,1,1,1h7.451
	c0.552,0,1-0.447,1-1v-25.325C227.17,357.176,226.723,356.729,226.17,356.729z M225.17,382.054h-5.451v-23.325h5.451V382.054z
	 M555.071,463.789c-0.019-0.092-0.049-0.18-0.091-0.262c-4.09-8.019-8.269-15.318-12.428-21.968v-1.148v-10.032h8.528
	c0.553,0,1-0.447,1-1v-30.09c0-0.453-0.306-0.82-0.719-0.943c-0.689-3.226-2.846-6.701-4.014-8.405
	c0.168-1.71,0.333-3.424,0.459-5.172c2.432-33.551-2.899-80.584-42.105-114.118c-20.876-17.855-39.266-24.431-62.547-32.755
	c-32.557-11.64-73.073-26.127-142.836-77.866c-18.084-13.412-54.091-28.539-96.028-27.077c-34.209,1.202-83.711,14.35-125.265,70.16
	c-19.019,25.543-30.78,54.282-34.958,85.417c-3.34,24.891-1.866,51.354,4.38,78.656c3.664,16.014,8.571,30.445,13.437,42.511v19.682
	c0,0.553,0.448,1,1,1h5.519v6.698c-7.936,7.847-12.724,13.559-12.789,16.25c-0.272,1.094-1.593,7.571,3.03,15.271
	c6.377,10.621,20.642,18.339,42.397,22.941c0.069,0.015,0.138,0.021,0.207,0.021c0.313,0,0.613-0.147,0.804-0.404
	c5.19-7.007,12.243-16.455,19.217-25.673h371.2c5.552,10.157,11.34,20.992,16.102,30.056c0.174,0.33,0.516,0.535,0.886,0.535
	c0.02,0,0.04-0.001,0.06-0.002c19.998-1.199,33.73-6.452,40.816-15.612C556.65,472.293,555.139,464.132,555.071,463.789z
	 M540.553,438.408c-1.802-2.797-3.595-5.475-5.373-8.029h5.373V438.408z M533.777,428.379c-6.482-9.136-12.706-16.687-18.223-22.852
	c19.661-0.165,31.754-0.416,32.835-0.776c0.668-0.223,1.224-0.556,1.692-0.961v24.589H533.777z M549.444,401.283
	c-0.24,0.768-0.776,1.267-1.67,1.565c-1.293,0.335-13.687,0.568-33.992,0.72c-5.166-5.656-9.631-10.049-12.983-13.344
	c-2.794-2.747-4.812-4.731-5.886-6.098c-0.473-0.602-1.066-1.312-1.746-2.099c0.038-0.046,0.078-0.09,0.108-0.142
	c0.156-0.274,3.765-6.785-0.514-13.201l-5.939-9.899c0.098-0.286,0.195-0.553,0.287-0.785c0.567,0.116,1.138,0.221,1.705,0.341
	c0.402,0.086,0.817-0.086,1.043-0.431s0.217-0.792-0.022-1.128l-52.655-73.95c-0.114-0.161-0.274-0.285-0.46-0.355
	c-0.637-0.242-63.811-23.628-126.537,0.509c-62.937-24.547-127.266-1.709-127.911-1.474c-0.19,0.069-0.355,0.195-0.473,0.36
	l-52.656,73.95c-0.239,0.336-0.248,0.783-0.022,1.128c0.225,0.346,0.64,0.518,1.043,0.431c0.315-0.066,0.634-0.122,0.95-0.188
	c0.789,1.187,1.441,2.411,1.974,3.614l-7.542,9.266c-0.03,0.037-0.057,0.076-0.081,0.116c-0.141,0.234-3.409,5.784,0.217,8.805
	c0.175,0.146,0.395,0.228,0.623,0.231l3.757,0.066c-2.609,2.798-4.74,5.198-6.031,6.841c-1.667,2.122-9.199,8.831-18.221,16.817
	c-11.051-0.049-21.659-0.099-31.69-0.147c-2.082,0.099-7.823-0.204-9.304-2.769c-0.738-1.279-0.346-3.12,1.166-5.471
	c6.673-10.38,87.155-116.962,87.967-118.038c0.073-0.096,0.127-0.205,0.162-0.32c0.035-0.12,3.721-11.991,20.772-10.569
	c0.028,0.002,0.055,0.003,0.083,0.003h264.031c0.146,0,14.749,0.148,24.845,10.965c10.361,11.102,80.443,112.451,81.173,113.504
	C546.57,392.186,550.396,398.238,549.444,401.283z M373.031,317.049h-40.25l-0.271-5.286l3.804,1.57
	c0.499,0.203,1.076-0.022,1.296-0.519l2.257-5.078c0.108-0.245,0.114-0.522,0.017-0.771c-0.098-0.25-0.291-0.449-0.538-0.555
	l-27.243-11.643l-0.107-10.328c59.508-22.37,119.134-1.846,123.737-0.192l50.563,71.011c-0.035,0.037-0.079,0.063-0.108,0.106
	c-0.02,0.029-0.101,0.155-0.217,0.361c-7.471-1.486-15.027-2.674-22.597-3.635c-1.393-1.251-2.649-2.343-3.712-3.218
	c-2.696-2.222-6.028-5.324-9.556-8.61c-7.915-7.374-16.888-15.731-25.179-20.567c-12.727-7.425-35.309-15.192-45.59-15.683
	c-4.35-0.194-7.457,1.91-8.15,5.522C370.742,311.84,371.349,314.516,373.031,317.049z M374.195,422.578
	c0.427,2.468,1.995,4.502,4.201,5.801H242.963c0.911-1.082,1.54-2.366,1.787-3.794c0.433-2.501-0.33-5.401-2.89-8.06h133.645
	C374.226,418.587,373.87,420.696,374.195,422.578z M430.94,430.88c2.951,0,7.062-0.181,11.415-0.372
	c0.963-0.042,1.958-0.086,2.971-0.129h22.328c2.281,0.256,3.99,0.666,4.797,1.293c0.805,0.626,2.694,3.463,5.272,7.739H141.45
	c2.504-3.081,4.307-5.16,5.044-5.733c3.026-2.353,18.673-1.667,30.098-1.163c4.352,0.19,8.463,0.371,11.414,0.371
	c4.084,0,9.844-0.275,15.942-0.566c10.492-0.5,22.383-1.067,29.606-0.44c2.622,0.229,5.067-0.349,7.013-1.5h175.807
	C421.955,430.644,427.166,430.88,430.94,430.88z M377.079,414.525H239.496c-2.31-1.623-5.442-3.075-9.614-4.168
	c-2.696-0.706-6.254-1.015-10.374-1.372c-1.367-0.119-2.773-0.242-4.195-0.382c-0.114-0.51-0.179-1.038-0.179-1.582v-72.718
	c5.39-3.228,10.516-4.774,15.269-6.196c1.759-0.525,3.42-1.022,5.068-1.591c0.235-0.081,0.451-0.174,0.678-0.259h147.007
	c4.138,0,7.504,3.366,7.504,7.504v6.341v66.919c0,0.337-0.027,0.668-0.071,0.993c-0.531,0.103-1.046,0.212-1.524,0.337
	C383.232,409.879,379.41,412.102,377.079,414.525z M213.135,378.76l-26-0.459c0.297-2.424,0.783-4.848,1.439-7.248l24.56,0.135
	V378.76z M213.135,347.808c-0.559-0.003-1.118-0.007-1.681-0.007c-3.678,0-7.41,0.05-11.167,0.132
	c0.978-1.272,1.984-2.491,3.009-3.645c3.354-3.773,6.639-6.559,9.839-8.711V347.808z M198.786,349.962
	c4.845-0.12,9.634-0.168,14.348-0.153v19.379l-23.971-0.132C191.308,362.202,194.747,355.624,198.786,349.962z M186.937,380.298
	l26.197,0.463v22.615c-5.932-0.021-11.834-0.041-17.697-0.063c-3.192-2.028-5.689-4.847-6.983-8.844
	C186.985,389.925,186.562,385.129,186.937,380.298z M213.135,405.369v1.652c0,0.464,0.038,0.918,0.106,1.362
	c-4.782-0.541-9.645-1.374-13.842-3.063C203.915,405.337,208.491,405.353,213.135,405.369z M392.66,338.034
	c8.596,1.693,16.115,6.172,21.943,10.792c-7.504-0.098-14.851-0.039-21.943,0.159v-8.437V338.034z M392.66,372.178l38.513,0.212
	c0.548,2.664,0.873,5.343,0.948,8.003H392.66V372.178z M392.66,407.021v-1.232c5.866,0.005,11.654,0.008,17.351,0.009
	c-3.55,0.57-7.178,0.886-10.573,1.18c-2.498,0.217-4.785,0.417-6.803,0.697C392.65,407.46,392.66,407.242,392.66,407.021z
	 M418.243,403.807c-8.295-0.001-16.825-0.005-25.583-0.012v-21.403h39.472c-0.073,3.433-0.588,6.816-1.641,10.07
	C428.549,398.464,423.902,401.819,418.243,403.807z M430.309,369.098c0.006,0.013,0.08,0.186,0.203,0.485
	c0.07,0.268,0.139,0.536,0.205,0.805l-38.056-0.21v-19.197c7.861-0.221,16.035-0.275,24.392-0.125
	c6.453,5.587,10.28,10.804,10.354,10.905c0.15,0.208,0.369,0.315,0.601,0.365c0.868,2.123,1.62,4.289,2.238,6.479
	C430.229,368.77,430.239,368.936,430.309,369.098z M392.799,336.019c-0.048-0.009-0.092,0.004-0.139,0.002v-2.259v-6.388
	c7.07,2.299,14.832,5.731,22.99,14.908c3.445,3.876,6.669,8.465,9.34,13.449C419.227,349.406,407.692,338.855,392.799,336.019z
	 M390.66,326.743v1.208c-0.508-0.654-1.098-1.238-1.756-1.741C389.484,326.384,390.07,326.562,390.66,326.743z M240.326,324.258
	c2.488-1.513,4.341-3.32,5.594-5.209h128.705c1.925,2.047,4.644,3.885,8.187,5.209H240.326z M226.044,308.654
	c0-0.001,0-0.002,0-0.003c-1.197-2.994-5.526-3.832-10.773-2.082c-1.383,0.461-4.078,1.142-7.199,1.93
	c-7.008,1.77-16.605,4.193-21.517,6.649c-6.835,3.416-20.445,27.923-22.356,31.414c-1.667,1.522-3.229,2.911-4.63,4.077
	c-9.166,1.063-18.318,2.454-27.319,4.27l50.995-71.619c4.756-1.64,66.491-22.01,126.756,1.764l0.091,8.852l-16.068-6.867
	c-0.26-0.111-0.557-0.106-0.815,0.013l-45.698,21.25c-0.255,0.119-0.448,0.34-0.532,0.608c-0.051,0.162-0.045,0.329-0.013,0.492
	c-1.327-2.279-3.969-3.535-7.355-3.386C236.183,306.18,231.385,307.155,226.044,308.654z M224.095,309.215
	c-10.261,3.047-22.102,7.832-30.074,12.483c-8.227,4.799-17.123,13.064-24.993,20.396c4.801-8.291,13.691-22.791,18.423-25.156
	c4.717-2.359,14.193-4.752,21.112-6.5c3.29-0.83,5.888-1.486,7.342-1.972C219.814,307.162,223.193,307.487,224.095,309.215z
	 M131.913,377.325l-5.189-0.092c-1.768-1.884,0.151-5.473,0.425-5.96l6.781-8.33c1.313,3.765,1.546,6.841,1.55,6.889
	c0.035,0.523,0.468,0.931,0.992,0.934l1.793,0.01C136.029,373.038,133.873,375.26,131.913,377.325z M140.241,368.786l-2.861-0.016
	c-0.26-2.064-1.181-7.191-4.152-11.994c7.779-1.55,15.664-2.793,23.578-3.776C152.372,356.906,146.159,362.859,140.241,368.786z
	 M257.191,311.635l36.637-16.853l16.347,7.193l0.155,15.074h-53.283L257.191,311.635z M312.331,317.049l-0.146-14.19l18.278,8.042
	l0.315,6.147H312.331z M331.812,309.31c-0.001,0-0.002,0-0.003-0.001l-19.646-8.645l-0.038-3.714l25.502,10.899l-1.449,3.262
	L331.812,309.31z M310.153,299.78l-15.931-7.01c-0.262-0.115-0.56-0.113-0.821,0.007l-37.611,17.302
	c-0.004,0.002-0.007,0.005-0.01,0.007c-0.003,0.001-0.006,0.001-0.008,0.002l-4.809,2.333l-1.613-2.766l44.299-20.6l16.467,7.038
	L310.153,299.78z M247.761,311.54c-0.086-0.446-0.209-0.869-0.367-1.268l2.307,3.955c0.185,0.316,0.519,0.496,0.864,0.496
	c0.147,0,0.296-0.032,0.436-0.101l4.163-2.02l-0.117,4.445h-8.035C247.836,315.149,248.088,313.243,247.761,311.54z M485.11,357.602
	c-0.91,2.403-1.956,6.744-1.237,13.079l-1.319-0.007c-5.457-5.58-11.61-11.607-16.624-16.248
	C472.356,355.295,478.763,356.349,485.11,357.602z M485.004,372.687h0.006c0.289,0,0.563-0.125,0.754-0.343
	c0.19-0.219,0.277-0.511,0.236-0.798c-0.606-4.256-0.364-7.602,0.113-10.055l4.96,8.264c3.022,4.533,1.397,9.13,0.715,10.638h-0.061
	c-1.979-2.21-4.469-4.864-7.219-7.709L485.004,372.687z M50.398,366.74C40.67,324.228,38.019,261.538,80.63,204.307
	c41.08-55.173,89.959-68.168,123.731-69.355c41.426-1.455,76.942,13.464,94.767,26.684c70.001,51.916,110.673,66.458,143.354,78.143
	c23.088,8.255,41.324,14.776,61.92,32.392c38.557,32.978,43.804,79.325,41.415,112.397c-0.069,0.956-0.158,1.895-0.241,2.839
	c-9.163-13.242-70.386-101.575-80.269-112.164c-10.705-11.469-25.675-11.601-26.307-11.601H175.008
	c-17.383-1.419-22.162,10.159-22.751,11.808c-4.493,5.95-81.298,107.676-87.958,118.034c-1.168,1.817-1.771,3.453-1.83,4.902
	c-0.344,0.158-0.585,0.501-0.585,0.904v4.928C57.683,393.258,53.572,380.612,50.398,366.74z M63.885,402.048
	c2.964,2.994,9.518,2.789,10.278,2.755c2.593,0.013,13.143,0.063,29.402,0.135c-9.724,8.605-18.622,16.539-26.049,23.441H63.885
	V402.048z M70.404,430.379h4.971c-1.754,1.647-3.413,3.228-4.971,4.74V430.379z M100.828,489.447
	c-25.874-5.587-36.269-14.933-40.43-21.815c-4.544-7.517-2.838-13.845-2.82-13.907c0.031-0.109,0.044-0.224,0.037-0.337
	c-0.303-4.852,29.626-31.335,47.508-47.157c10.381-9.186,18.58-16.44,20.481-18.86c5.516-7.021,26.423-27.925,34.954-34.95
	c2.745-2.26,6.099-5.385,9.65-8.692c7.45-6.94,16.722-15.578,24.82-20.302c12.512-7.299,34.643-14.933,44.677-15.411
	c3.322-0.154,5.592,1.301,6.091,3.902c0.78,4.057-2.803,9.891-10.978,12.709c-1.608,0.555-3.25,1.046-4.989,1.565
	c-8.38,2.508-17.879,5.349-28.029,16.769c-4.191,4.715-8.326,10.739-11.477,17.442c-0.071,0.075-0.14,0.154-0.186,0.252
	c-0.393,0.844-9.639,20.705-10.666,25.775c-0.11,0.542,0.24,1.069,0.781,1.179c0.066,0.014,0.132,0.02,0.197,0.02
	c0.467,0.001,0.885-0.326,0.981-0.801c0.375-1.855,1.995-5.978,3.854-10.37c-0.947,6.181-0.713,12.511,1.266,18.627
	c4.343,13.425,20.781,14.852,32.783,15.894c4.029,0.35,7.508,0.651,10.04,1.315c10.926,2.861,14.05,8.226,13.405,11.95
	c-0.625,3.612-4.526,6.038-9.053,5.644c-7.356-0.639-19.319-0.069-29.875,0.436c-6.074,0.29-11.811,0.563-15.847,0.563
	c-2.907,0-6.996-0.18-11.326-0.369c-15.756-0.693-28.073-1.016-31.413,1.583C140.885,435.508,105.196,483.557,100.828,489.447z
	 M122.785,463.482c6.368-8.399,12.547-16.436,17.053-22.071h339.078c3.434,5.803,7.831,13.637,12.458,22.071H122.785z
	 M548.751,479.235c-6.643,8.587-19.665,13.564-38.71,14.8c-4.435-8.431-31.926-60.491-36.361-63.941
	c-0.979-0.762-2.736-1.271-5.119-1.595c-0.043-0.041-0.093-0.077-0.134-0.12h-0.852c-2.364-0.255-5.25-0.358-8.559-0.358
	c-4.009,0-8.636,0.151-13.67,0.358h-28.938c-0.437-0.021-0.872-0.041-1.314-0.062c-10.556-0.506-22.52-1.076-29.875-0.436
	c-4.521,0.397-8.427-2.031-9.053-5.644c-0.645-3.725,2.479-9.09,13.404-11.95c0.115-0.03,0.243-0.056,0.362-0.085
	c-0.038,0.08-0.068,0.164-0.108,0.242c0.774-0.272,1.572-0.487,2.409-0.632c0.006-0.018,0.009-0.037,0.015-0.056
	c2.115-0.326,4.605-0.546,7.362-0.785c12.003-1.042,28.439-2.469,32.783-15.894c1.27-3.926,1.816-7.94,1.799-11.946
	c0.611,2.698,1.047,5.53,1.047,8.128c0,0.553,0.447,1,1,1s1-0.447,1-1c0-7.432-3.24-16.335-4.557-19.648
	c-2.807-11.127-9.111-21.427-15.538-28.658c-10.149-11.419-19.647-14.261-28.027-16.768c-1.739-0.521-3.381-1.012-4.989-1.566
	c-8.176-2.819-11.758-8.652-10.979-12.709c0.499-2.601,2.784-4.062,6.091-3.902c10.035,0.479,32.165,8.112,44.678,15.412
	c8.099,4.724,17.372,13.362,24.824,20.304c3.55,3.307,6.902,6.43,9.646,8.689c8.529,7.024,29.436,27.929,34.953,34.95
	c1.152,1.466,3.209,3.488,6.056,6.287c10.848,10.665,33.407,32.847,53.732,72.648C553.285,465.314,554.111,472.308,548.751,479.235z
	 M314.059,357.438h-9.841c-2.119,0-3.843,1.888-3.843,4.209v16.443c0,0.553,0.447,1,1,1h15.526c0.553,0,1-0.447,1-1v-16.443
	C317.901,359.326,316.178,357.438,314.059,357.438z M315.901,377.091h-13.526v-15.443c0-1.197,0.844-2.209,1.843-2.209h9.841
	c0.999,0,1.843,1.012,1.843,2.209V377.091z M399.274,199.522c9.41,4.414,24.267,10.406,35.548,10.406
	c4.201,0,7.907-0.832,10.65-2.886c5.797-4.341,2.949-16.321-7.617-32.048c-11.771-17.519-29.189-33.916-46.597-43.861
	c-15.406-8.803-38.12-16.686-58.839-4.255c-3.893,2.335-5.757,5.655-5.542,9.868C327.765,154.146,365.743,183.796,399.274,199.522z
	 M333.449,128.592c7.353-4.412,14.988-6.143,22.453-6.143c12.726,0,24.946,5.038,34.364,10.419
	c16.896,9.654,34.495,26.223,45.929,43.24c9.607,14.299,12.778,25.813,8.078,29.333c-6.771,5.069-22.865,2.252-44.15-7.73
	c-32.95-15.454-70.422-44.854-71.248-61.068C328.698,133.179,330.194,130.545,333.449,128.592z"></path>
</svg>