<?xml version="1.0" standalone="no"?>
<!DOCTYPE svg PUBLIC "-//W3C//DTD SVG 20010904//EN"
 "http://www.w3.org/TR/2001/REC-SVG-20010904/DTD/svg10.dtd">
<svg version="1.0" xmlns="http://www.w3.org/2000/svg"
 width="1587.000000pt" height="2245.000000pt" viewBox="0 0 1587.000000 2245.000000"
 preserveAspectRatio="xMidYMid meet">

<g transform="translate(0.000000,2245.000000) scale(0.100000,-0.100000)"
fill="#000000" stroke="none">
<path d="M5900 17869 c-254 -27 -553 -185 -722 -382 -143 -167 -228 -339 -269
-550 -17 -89 -19 -147 -19 -632 l0 -535 -35 -15 c-64 -26 -66 -40 -63 -441 l3
-356 33 -29 c18 -16 39 -29 47 -29 13 0 15 -32 15 -218 l0 -219 -26 -11 c-50
-24 -54 -51 -54 -424 0 -256 3 -349 13 -368 l13 -25 184 0 185 0 2 1600 c2
1767 -1 1660 66 1815 108 247 320 430 582 502 73 20 109 22 409 26 316 4 328
3 322 -15 -4 -10 -13 -44 -19 -76 -29 -156 60 -344 200 -419 111 -60 67 -58
1133 -56 l975 3 3 25 c11 105 61 181 146 221 l61 29 351 0 c402 0 362 -11 371
105 4 64 -3 122 -22 168 -7 16 12 17 306 17 217 -1 337 -5 389 -14 165 -30
304 -97 436 -212 l73 -64 152 0 c131 0 150 2 145 15 -16 43 -100 150 -180 231
-186 187 -424 304 -682 334 -108 12 -4410 12 -4524 -1z m2399 -305 c78 -16
110 -113 55 -168 l-27 -26 -376 0 c-419 0 -411 -1 -430 67 -15 52 11 104 59
120 37 13 659 19 719 7z m432 -33 c62 -62 19 -161 -71 -161 -33 0 -48 6 -71
29 -62 62 -19 161 71 161 33 0 48 -6 71 -29z"/>
<path d="M7263 15851 c-141 -52 -238 -168 -294 -351 -12 -40 -32 -89 -45 -107
-29 -43 -38 -105 -31 -197 13 -163 143 -435 215 -453 15 -3 50 -26 77 -50 57
-50 166 -106 240 -124 64 -14 196 -14 260 0 83 20 190 77 248 134 115 112 166
223 174 377 8 146 -21 247 -103 363 -25 34 -30 47 -19 47 26 0 65 47 65 77 0
51 -34 127 -75 168 -87 88 -222 124 -480 131 -160 3 -186 2 -232 -15z"/>
<path d="M10590 15175 c0 -4 7 -19 15 -34 14 -28 13 -31 -40 -107 -30 -44 -51
-82 -47 -85 4 -4 68 -27 143 -51 l135 -45 60 104 c32 58 76 128 97 155 20 28
37 54 37 59 0 5 -88 9 -200 9 -110 0 -200 -2 -200 -5z"/>
<path d="M11200 12820 l0 -2360 125 0 125 0 0 1420 c0 1256 2 1420 15 1420 8
0 24 9 35 20 20 20 20 33 20 683 0 583 -2 665 -16 685 -8 12 -24 22 -35 22
-18 0 -19 9 -19 235 l0 235 -125 0 -125 0 0 -2360z"/>
<path d="M5130 11530 c-30 -5 -97 -8 -148 -9 l-92 -1 3 -2982 2 -2983 23 -85
c97 -363 310 -625 638 -782 l89 -43 2525 0 2525 0 69 33 c293 138 522 392 622
688 61 182 57 93 61 1602 l4 1382 -126 0 -125 0 0 -1354 c0 -1484 3 -1412 -60
-1574 -79 -206 -277 -405 -482 -484 -98 -38 -205 -58 -306 -58 l-97 0 3 202
c12 736 -136 1495 -425 2178 -72 170 -242 503 -342 668 l-92 154 -5 986 -5
986 -34 130 c-19 72 -55 223 -81 336 -25 113 -49 208 -52 211 -4 3 -106 -2
-227 -12 -291 -25 -907 -36 -1075 -20 -152 15 -284 36 -340 56 -27 10 -80 15
-145 15 l-103 0 -10 48 c-6 26 -16 75 -23 110 -10 54 -14 62 -30 57 -10 -4
-73 -21 -139 -39 -66 -18 -122 -35 -125 -38 -2 -2 22 -107 54 -233 57 -225 59
-233 64 -405 4 -96 3 -181 -2 -188 -5 -9 -44 4 -157 52 -345 148 -713 260
-1084 330 -167 32 -454 72 -577 82 l-93 7 -2 490 c-2 317 -7 491 -13 492 -5 1
-35 -1 -65 -5z m3185 -2197 c5 -18 3 -22 -9 -17 -9 3 -16 18 -16 32 0 29 14
20 25 -15z"/>
</g>
</svg>
